<svg width="20" height="20" viewBox="0 0 20 20" fill="none" xmlns="http://www.w3.org/2000/svg">
  <path d="M3.05312 16.506C1.38639 14.9605 0.3305 12.9072 0.065908 10.6972C-0.198684 8.48713 0.344444 6.25745 1.60248 4.38922C2.86051 2.52099 4.75535 1.13018 6.96315 0.454488C9.17095 -0.221204 11.5547 -0.139829 13.7069 0.684698C15.8591 1.50922 17.6463 3.02572 18.7629 4.97501C19.8795 6.9243 20.2564 9.18538 19.8289 11.3718C19.4015 13.5583 18.1963 15.5343 16.4195 16.9623C14.6426 18.3902 12.4043 19.1815 10.0871 19.2008C7.46524 19.2219 4.93945 18.2543 3.05312 16.506ZM11.5231 9.71875L14.3531 7.00193L12.9431 5.64832L10.1231 8.36514L7.29312 5.64832L5.88312 7.00193L8.71312 9.71875L5.88312 12.4356L7.29312 13.7892L10.1231 11.0724L12.9531 13.7892L14.3631 12.4356L11.5331 9.71875H11.5231Z" fill="#DC3646" />
</svg>
  