<svg width="20" height="20" viewBox="0 0 20 20" fill="red" xmlns="http://www.w3.org/2000/svg">
<path d="M18 0.24015H2C1.46957 0.24015 0.960858 0.442436 0.585785 0.802509C0.210712 1.16258 0 1.65095 0 2.16017V19.4403L4 15.6003H18C18.5304 15.6003 19.0391 15.398 19.4142 15.0379C19.7893 14.6778 20 14.1895 20 13.6803V2.16017C20 1.65095 19.7893 1.16258 19.4142 0.802509C19.0391 0.442436 18.5304 0.24015 18 0.24015ZM7 9.84023C6.53733 9.8401 6.08901 9.68598 5.73143 9.40412C5.37385 9.12227 5.12912 8.73011 5.03893 8.29446C4.94875 7.85881 5.01869 7.40662 5.23685 7.01492C5.455 6.62322 5.80786 6.31625 6.23533 6.1463C6.66279 5.97635 7.13842 5.95394 7.58117 6.08288C8.02392 6.21182 8.4064 6.48414 8.66347 6.85344C8.92053 7.22275 9.03626 7.66619 8.99096 8.10822C8.94565 8.55026 8.74211 8.96354 8.415 9.27767C8.22921 9.45608 8.00861 9.5976 7.76582 9.69413C7.52302 9.79066 7.26279 9.8403 7 9.84023ZM13 9.84023C12.5373 9.8401 12.089 9.68598 11.7314 9.40412C11.3738 9.12227 11.1291 8.73011 11.0389 8.29446C10.9488 7.85881 11.0187 7.40662 11.2368 7.01492C11.455 6.62322 11.8079 6.31625 12.2353 6.1463C12.6628 5.97635 13.1384 5.95394 13.5812 6.08288C14.0239 6.21182 14.4064 6.48414 14.6635 6.85344C14.9205 7.22275 15.0363 7.66619 14.991 8.10822C14.9457 8.55026 14.7421 8.96354 14.415 9.27767C14.2292 9.45608 14.0086 9.5976 13.7658 9.69413C13.523 9.79066 13.2628 9.8403 13 9.84023Z" fill="#4294D0"/>
</svg>
