<svg width="17" height="12" viewBox="0 0 17 12" fill="none" xmlns="http://www.w3.org/2000/svg">
	<path d="M15.8436 4.27826C15.7045 4.10435 15.5132 4 15.3045 4H14.4349V2.10435C14.4349 1.77391 14.1914 1.56522 13.861 1.56522H7.77405L6.99144 0.278261C6.88709 0.104348 6.6784 0 6.4697 0H1.98274C1.65231 0 1.39144 0.191304 1.39144 0.521739V4H0.695787C0.487092 4 0.278396 4.10435 0.156657 4.26087C0.0349179 4.41739 -0.0346474 4.64348 0.0175266 4.85217L1.30448 10.7478C1.37405 11.0609 1.65231 11.3043 1.98274 11.3043H13.861C14.174 11.3043 14.4523 11.0783 14.5393 10.7826L15.9827 4.86957C16.0349 4.66087 15.9827 4.45217 15.8436 4.27826ZM2.60883 1.21739H6.12188L6.90448 2.50435C7.00883 2.67826 7.21753 2.78261 7.42622 2.78261H13.2175V4H2.60883V1.21739ZM13.3045 9.91304H2.53927L1.56535 5.3913H14.4175L13.3045 9.91304Z" fill="#4294D0" />
</svg>
