<svg width="31" height="31" viewBox="0 0 31 31" fill="none" xmlns="http://www.w3.org/2000/svg">
	<path d="M17.3896 13.2639C17.1674 13.2639 16.9873 13.444 16.9873 13.6662V21.2697C16.9873 21.4917 17.1674 21.672 17.3896 21.672C17.6118 21.672 17.7919 21.4917 17.7919 21.2697V13.6662C17.7919 13.444 17.6118 13.2639 17.3896 13.2639Z" fill="black" stroke="#252529" stroke-width="0.1"/>
	<path d="M12.6425 13.2639C12.4203 13.2639 12.2402 13.444 12.2402 13.6662V21.2697C12.2402 21.4917 12.4203 21.672 12.6425 21.672C12.8647 21.672 13.0448 21.4917 13.0448 21.2697V13.6662C13.0448 13.444 12.8647 13.2639 12.6425 13.2639Z" fill="black" stroke="#252529" stroke-width="0.1"/>
	<path fill-rule="evenodd" clip-rule="evenodd" d="M9.18263 22.066V12.1542C8.43665 11.9562 7.95326 11.2356 8.05305 10.4701C8.153 9.70478 8.80501 9.13229 9.57692 9.13213H11.6367V8.62926C11.6343 8.20637 11.8015 7.8003 12.1009 7.50156C12.4002 7.20298 12.8069 7.03672 13.2298 7.04018H16.8021C17.225 7.03672 17.6317 7.20298 17.9311 7.50156C18.2304 7.8003 18.3976 8.20637 18.3953 8.62926V9.13213H20.455C21.2269 9.13229 21.8789 9.70478 21.9789 10.4701C22.0787 11.2356 21.5953 11.9562 20.8493 12.1542V22.066C20.8493 22.6519 20.6345 23.2021 20.2592 23.5968C19.8858 23.9927 19.366 24.2174 18.8218 24.2183H11.2102C10.6661 24.2174 10.1463 23.9927 9.77272 23.5968C9.39745 23.2021 9.18263 22.6519 9.18263 22.066ZM11.2102 23.4137H18.8218C19.5096 23.4137 20.0447 22.8229 20.0447 22.066V12.1896H9.98723V22.066C9.98723 22.8229 10.5223 23.4137 11.2102 23.4137ZM12.4413 8.62926C12.4386 8.41978 12.5209 8.21816 12.6696 8.07028C12.8181 7.9224 13.0202 7.84116 13.2298 7.84477H16.8021C17.0117 7.84116 17.2138 7.9224 17.3623 8.07028C17.511 8.218 17.5934 8.41978 17.5907 8.62926V9.13213H12.4413V8.62926ZM20.455 9.93673H9.57692C9.17698 9.93673 8.85278 10.2609 8.85278 10.6609C8.85278 11.0608 9.17698 11.385 9.57692 11.385H20.455C20.855 11.385 21.1792 11.0608 21.1792 10.6609C21.1792 10.2609 20.855 9.93673 20.455 9.93673Z" fill="black"/>
	<path d="M9.18263 12.1542H9.23263V12.1158L9.19546 12.1059L9.18263 12.1542ZM8.05305 10.4701L8.00347 10.4636L8.00347 10.4636L8.05305 10.4701ZM9.57692 9.13213V9.08213H9.57691L9.57692 9.13213ZM11.6367 9.13213V9.18213H11.6867V9.13213H11.6367ZM11.6367 8.62926H11.6867L11.6867 8.62898L11.6367 8.62926ZM12.1009 7.50156L12.0656 7.46616L12.0656 7.46617L12.1009 7.50156ZM13.2298 7.04018L13.2294 7.09018H13.2298V7.04018ZM16.8021 7.04018V7.09018L16.8025 7.09017L16.8021 7.04018ZM17.9311 7.50156L17.9664 7.46617L17.9664 7.46616L17.9311 7.50156ZM18.3953 8.62926L18.3453 8.62898V8.62926H18.3953ZM18.3953 9.13213H18.3453V9.18213H18.3953V9.13213ZM20.455 9.13213L20.455 9.08213H20.455V9.13213ZM21.9789 10.4701L22.0285 10.4636L22.0285 10.4636L21.9789 10.4701ZM20.8493 12.1542L20.8365 12.1059L20.7993 12.1158V12.1542H20.8493ZM20.2592 23.5968L20.223 23.5624L20.2228 23.5625L20.2592 23.5968ZM18.8218 24.2183V24.2683L18.8219 24.2683L18.8218 24.2183ZM11.2102 24.2183L11.2101 24.2683H11.2102V24.2183ZM9.77272 23.5968L9.80909 23.5625L9.80896 23.5624L9.77272 23.5968ZM20.0447 12.1896H20.0947V12.1396H20.0447V12.1896ZM9.98723 12.1896V12.1396H9.93723V12.1896H9.98723ZM12.6696 8.07028L12.7049 8.10573L12.7049 8.10571L12.6696 8.07028ZM12.4413 8.62926H12.4913L12.4913 8.62862L12.4413 8.62926ZM13.2298 7.84477L13.229 7.89477H13.2298V7.84477ZM16.8021 7.84477V7.89478L16.803 7.89477L16.8021 7.84477ZM17.3623 8.07028L17.3271 8.10571L17.3271 8.10575L17.3623 8.07028ZM17.5907 8.62926L17.5407 8.62862V8.62926H17.5907ZM17.5907 9.13213V9.18213H17.6407V9.13213H17.5907ZM12.4413 9.13213H12.3913V9.18213H12.4413V9.13213ZM9.13263 12.1542V22.066H9.23263V12.1542H9.13263ZM8.00347 10.4636C7.90044 11.254 8.39955 11.9981 9.16981 12.2026L9.19546 12.1059C8.47376 11.9144 8.00609 11.2171 8.10263 10.4766L8.00347 10.4636ZM9.57691 9.08213C8.77989 9.08229 8.10667 9.6734 8.00347 10.4636L8.10263 10.4766C8.19933 9.73615 8.83012 9.18228 9.57693 9.18213L9.57691 9.08213ZM11.6367 9.08213H9.57692V9.18213H11.6367V9.08213ZM11.5867 8.62926V9.13213H11.6867V8.62926H11.5867ZM12.0656 7.46617C11.7567 7.77435 11.5842 8.19327 11.5867 8.62953L11.6867 8.62898C11.6844 8.21947 11.8463 7.82625 12.1362 7.53695L12.0656 7.46617ZM13.2302 6.99018C12.794 6.98661 12.3744 7.15813 12.0656 7.46616L12.1362 7.53696C12.4261 7.24783 12.8199 7.08683 13.2294 7.09017L13.2302 6.99018ZM16.8021 6.99018H13.2298V7.09018H16.8021V6.99018ZM17.9664 7.46616C17.6575 7.15813 17.238 6.98661 16.8017 6.99018L16.8025 7.09017C17.212 7.08683 17.6059 7.24783 17.8958 7.53696L17.9664 7.46616ZM18.4453 8.62953C18.4477 8.19327 18.2752 7.77435 17.9664 7.46617L17.8957 7.53695C18.1856 7.82625 18.3476 8.21947 18.3453 8.62898L18.4453 8.62953ZM18.4453 9.13213V8.62926H18.3453V9.13213H18.4453ZM20.455 9.08213H18.3953V9.18213H20.455V9.08213ZM22.0285 10.4636C21.9253 9.6734 21.252 9.08229 20.455 9.08213L20.455 9.18213C21.2018 9.18228 21.8326 9.73615 21.9293 10.4766L22.0285 10.4636ZM20.8621 12.2026C21.6324 11.9981 22.1315 11.254 22.0285 10.4636L21.9293 10.4766C22.0258 11.2171 21.5582 11.9144 20.8365 12.1059L20.8621 12.2026ZM20.8993 22.066V12.1542H20.7993V22.066H20.8993ZM20.2954 23.6313C20.6801 23.2267 20.8993 22.6639 20.8993 22.066H20.7993C20.7993 22.6399 20.5889 23.1775 20.223 23.5624L20.2954 23.6313ZM18.8219 24.2683C19.3798 24.2674 19.9128 24.037 20.2956 23.6311L20.2228 23.5625C19.8589 23.9484 19.3522 24.1674 18.8217 24.1683L18.8219 24.2683ZM11.2102 24.2683H18.8218V24.1683H11.2102V24.2683ZM9.73636 23.6311C10.1193 24.037 10.6523 24.2674 11.2101 24.2683L11.2102 24.1683C10.6799 24.1674 10.1732 23.9484 9.80909 23.5625L9.73636 23.6311ZM9.13263 22.066C9.13263 22.6639 9.35185 23.2267 9.73649 23.6313L9.80896 23.5624C9.44306 23.1775 9.23263 22.6399 9.23263 22.066H9.13263ZM18.8218 23.3637H11.2102V23.4637H18.8218V23.3637ZM19.9947 22.066C19.9947 22.8 19.4775 23.3637 18.8218 23.3637V23.4637C19.5417 23.4637 20.0947 22.8458 20.0947 22.066H19.9947ZM19.9947 12.1896V22.066H20.0947V12.1896H19.9947ZM9.98723 12.2396H20.0447V12.1396H9.98723V12.2396ZM10.0372 22.066V12.1896H9.93723V22.066H10.0372ZM11.2102 23.3637C10.5544 23.3637 10.0372 22.8 10.0372 22.066H9.93723C9.93723 22.8458 10.4902 23.4637 11.2102 23.4637V23.3637ZM12.6343 8.03483C12.4761 8.19224 12.3884 8.40688 12.3913 8.62989L12.4913 8.62862C12.4888 8.43268 12.5658 8.24407 12.7049 8.10573L12.6343 8.03483ZM13.2307 7.79478C13.0076 7.79093 12.7924 7.87741 12.6343 8.03485L12.7049 8.10571C12.8438 7.9674 13.0328 7.89138 13.229 7.89477L13.2307 7.79478ZM16.8021 7.79477H13.2298V7.89477H16.8021V7.79477ZM17.3976 8.03485C17.2395 7.87741 17.0244 7.79093 16.8012 7.79478L16.803 7.89477C16.9991 7.89138 17.1882 7.9674 17.3271 8.10571L17.3976 8.03485ZM17.6407 8.62989C17.6435 8.40689 17.5559 8.19208 17.3976 8.03481L17.3271 8.10575C17.4662 8.24392 17.5432 8.43266 17.5407 8.62862L17.6407 8.62989ZM17.6407 9.13213V8.62926H17.5407V9.13213H17.6407ZM12.4413 9.18213H17.5907V9.08213H12.4413V9.18213ZM12.3913 8.62926V9.13213H12.4913V8.62926H12.3913ZM9.57692 9.98673H20.455V9.88673H9.57692V9.98673ZM8.90278 10.6609C8.90278 10.2885 9.20459 9.98673 9.57692 9.98673V9.88673C9.14936 9.88673 8.80278 10.2333 8.80278 10.6609H8.90278ZM9.57692 11.335C9.20459 11.335 8.90278 11.0332 8.90278 10.6609H8.80278C8.80278 11.0884 9.14936 11.435 9.57692 11.435V11.335ZM20.455 11.335H9.57692V11.435H20.455V11.335ZM21.1292 10.6609C21.1292 11.0332 20.8273 11.335 20.455 11.335V11.435C20.8826 11.435 21.2292 11.0884 21.2292 10.6609H21.1292ZM20.455 9.98673C20.8273 9.98673 21.1292 10.2885 21.1292 10.6609H21.2292C21.2292 10.2333 20.8826 9.88673 20.455 9.88673V9.98673Z" fill="#252529"/>
	<path d="M15.0156 13.2639C14.7934 13.2639 14.6133 13.444 14.6133 13.6662V21.2697C14.6133 21.4917 14.7934 21.672 15.0156 21.672C15.2378 21.672 15.4179 21.4917 15.4179 21.2697V13.6662C15.4179 13.444 15.2378 13.2639 15.0156 13.2639Z" fill="black" stroke="#252529" stroke-width="0.1"/>
	</svg>
