<svg xmlns="http://www.w3.org/2000/svg" viewBox="0 0 449.8 153.2"><defs><style>.cls-1{fill:#fff;}</style></defs><title>Asset 3</title><g id="Layer_2" data-name="Layer 2"><g id="Layer_1-2" data-name="Layer 1"><path class="cls-1" d="M148.5,99.4V55.5c0-.7.3-1.1,1-1.1h14.8a23,23,0,0,1,23.2,23c0,13.2-11,22.9-23.2,22.9H149.5C148.9,100.3,148.5,100,148.5,99.4Zm5.2-4.4H164a17.85,17.85,0,0,0,18-18.2c0-10.3-8.2-17.3-17.8-17.3H153.7Z"/><path class="cls-1" d="M225.7,59.6a1,1,0,0,0,1.1-1.1V55.3c0-.6-.4-.7-1.1-.7H195.4c-.6,0-.6,0-.6.6v44c0,.7-.1,1.4.6,1.4h30.1a1.33,1.33,0,0,0,1.2-1.4V96.1a1.5,1.5,0,0,0-1.3-1.4H199.8V79.6h25.9c.7,0,1.1.1,1.1-.7V75.7a1,1,0,0,0-1.1-1.1H199.8v-15Z"/><path class="cls-1" d="M448.6,59.6c.7,0,1.2-.3,1.2-1.1V55.3c0-.6-.5-.7-1.1-.7H418.4c-.6,0-1.5,0-1.5.6v44a1.6,1.6,0,0,0,1.5,1.4h30.1a1.42,1.42,0,0,0,1.3-1.4V96.1a1.59,1.59,0,0,0-1.4-1.4H422.8V79.6h25.8c.7,0,1.2.1,1.2-.7V75.7a1.13,1.13,0,0,0-1.2-1.1H422.8v-15Z"/><path class="cls-1" d="M254.8,99.5c-.3.8-.6.8-1.3.8h-2.1c-.7,0-1-.1-1.2-.8L232,55.8c-.3-.7,0-1.4,1-1.4h3.3c1.2,0,1.3.9,2.6,4L252.5,92l13.7-33.6c1.3-3.1,1.3-4,2.6-4h3.3c.6,0,1.1.3,1.1.8,0,.2-.1.4-.1.6Z"/><path class="cls-1" d="M282.5,88.6a24.11,24.11,0,0,1-2.9-16,23.61,23.61,0,0,1,14.1-17.7,24.08,24.08,0,0,1,23.2,2.6c.7.5.8.8.5,1.4l-1.6,2.6c-.5.8-1.2,1-1.8.4a18,18,0,0,0-10.3-3.5,19.2,19.2,0,0,0-17.6,11.2A18.19,18.19,0,0,0,291,90.7c6.1,5.1,14.9,5.5,23,.4.7-.4,1-.5,1.5.3,0,0,1.7,2.9,1.8,3,.3.6-.1,1-.6,1.4a23.86,23.86,0,0,1-34.2-7.2C281.5,86.8,283.5,90.3,282.5,88.6Z"/><path class="cls-1" d="M371,76.6a23.7,23.7,0,1,1-23.7-23.7A23.75,23.75,0,0,1,371,76.6Zm-5.3,0a18.45,18.45,0,1,0-18.4,18.5A18.5,18.5,0,0,0,365.7,76.6Z"/><path class="cls-1" d="M396.5,77.9a9.4,9.4,0,0,0,8.4-9.2c0-4.7-4-9.2-8.9-9.2H380.5c-.7,0-1-.4-1-1.1V55.2a.94.94,0,0,1,1-1H396a14.56,14.56,0,0,1,14.2,14.4,15.06,15.06,0,0,1-10.9,14.2l10,16.7c.1.3.2.4.2.5s-.2.2-.6.2h-4.8a1.61,1.61,0,0,1-1.4-1L393,83.1H382V99.2a.9.9,0,0,1-1,1h-3.3c-.7,0-1-.3-1-1V78.9a1,1,0,0,1,1-1.1h18.8Z"/><path class="cls-1" d="M66.3,37.7H39.5v9.6L66.3,47c16.9,0,31.3,12.3,31.3,30.3,0,17.6-13.6,31.9-31.7,31.9H47.8V70.5H39.5v47.8a2.2,2.2,0,0,0,.8.1H66.2c21.3,0,40.7-17,40.7-40.2A40.23,40.23,0,0,0,66.3,37.7Z"/><path class="cls-1" d="M66.3,153.2,0,114.9V38.3L66.3,0l66.3,38.3v76.6ZM6.1,111.3,66.2,146l60.1-34.7V41.9L66.2,7.2,6.1,41.9v69.4Z"/></g></g></svg>