<?xml version="1.0" standalone="no"?>
<!DOCTYPE svg PUBLIC "-//W3C//DTD SVG 20010904//EN"
 "http://www.w3.org/TR/2001/REC-SVG-20010904/DTD/svg10.dtd">
<svg version="1.0" xmlns="http://www.w3.org/2000/svg"
 width="500.000000pt" height="500.000000pt" viewBox="0 0 500.000000 500.000000"
 preserveAspectRatio="xMidYMid meet">
<metadata>
Created by potrace 1.11, written by Peter Selinger 2001-2013
</metadata>
<g transform="translate(0.000000,500.000000) scale(0.100000,-0.100000)"
fill="#000000" stroke="none">
<path d="M739 3167 c-97 -56 -246 -142 -332 -192 l-157 -90 0 -385 0 -385 173
-99 c94 -55 242 -140 326 -189 85 -50 160 -90 165 -90 6 0 99 51 206 113 107
62 216 125 241 139 25 14 85 49 132 76 l87 50 0 385 0 385 -182 105 c-99 58
-204 118 -232 133 -28 16 -61 35 -73 43 -12 7 -39 23 -60 35 -21 12 -56 32
-78 44 l-40 24 -176 -102z m457 -138 c153 -89 288 -166 299 -171 20 -9 20 -17
20 -355 l-1 -347 -49 -29 c-66 -39 -430 -249 -476 -275 -20 -11 -45 -25 -55
-32 -17 -10 -59 11 -309 155 -160 92 -295 171 -300 175 -6 5 -10 134 -10 352
l0 343 295 172 c162 94 298 172 301 172 4 1 132 -72 285 -160z"/>
<path d="M645 2843 l1 -48 159 -1 c176 -1 219 -9 288 -55 211 -139 159 -468
-87 -549 -38 -12 -237 -22 -263 -12 -10 3 -13 51 -13 193 0 104 -3 189 -7 190
-45 4 -73 2 -76 -6 -2 -5 -3 -113 -3 -240 l1 -230 180 0 c205 1 252 13 344 85
214 169 199 509 -29 654 -84 54 -134 64 -321 66 l-175 1 1 -48z"/>
<path d="M3196 2719 c-191 -72 -204 -336 -21 -432 100 -52 296 -2 234 60 -9 9
-20 8 -43 -5 -19 -10 -55 -16 -92 -17 -51 0 -66 4 -97 28 -21 16 -47 47 -58
69 -62 121 45 270 182 255 28 -3 61 -12 74 -21 21 -14 24 -13 38 2 20 24 11
40 -31 58 -56 24 -129 25 -186 3z"/>
<path d="M3658 2730 c-128 -37 -205 -191 -157 -314 52 -133 207 -191 334 -125
166 85 167 333 1 418 -50 26 -128 35 -178 21z m165 -79 c81 -50 108 -168 56
-243 -41 -60 -75 -81 -139 -86 -163 -12 -260 173 -153 294 65 74 153 87 236
35z"/>
<path d="M1752 2719 c-16 -6 -18 -28 -17 -230 l0 -224 110 0 c98 0 116 3 159
25 94 48 144 164 116 266 -17 59 -79 128 -134 149 -44 17 -201 26 -234 14z
m199 -60 c117 -39 155 -182 73 -277 -45 -53 -85 -66 -191 -63 l-43 1 0 175 0
175 64 0 c34 0 78 -5 97 -11z"/>
<path d="M2586 2717 c-14 -11 -6 -36 76 -230 50 -121 98 -221 106 -224 7 -3
20 1 27 8 11 12 181 404 188 433 1 5 -10 12 -25 16 -26 8 -27 5 -68 -94 -23
-55 -48 -114 -55 -131 -7 -16 -20 -50 -30 -75 -10 -25 -22 -49 -25 -53 -4 -4
-39 73 -79 172 -40 99 -79 182 -86 185 -7 2 -20 -1 -29 -7z"/>
<path d="M4056 2718 c-8 -4 -13 -16 -12 -26 2 -14 18 -18 105 -22 100 -5 104
-6 127 -35 33 -41 31 -80 -5 -116 -29 -29 -31 -29 -140 -29 -82 0 -111 -3
-112 -12 -4 -48 1 -199 6 -208 3 -5 15 -10 26 -10 21 0 22 7 19 108 -1 45 2
62 12 63 7 1 32 2 56 3 l43 2 45 -77 c53 -90 64 -102 99 -97 l25 3 -49 85 -49
84 26 17 c39 23 59 49 70 89 11 43 7 75 -16 113 -33 58 -61 70 -166 72 -52 1
-101 -2 -110 -7z"/>
<path d="M2200 2490 l0 -231 158 3 157 3 0 25 0 25 -132 3 -133 3 0 74 0 75
135 0 135 0 0 25 0 25 -135 0 -135 0 0 75 0 75 135 0 135 0 0 25 0 25 -160 0
-160 0 0 -230z"/>
<path d="M4422 2493 l3 -228 160 0 160 0 0 25 0 25 -132 3 -133 3 0 74 0 75
135 0 135 0 0 25 0 25 -135 0 -135 0 0 75 0 75 135 0 135 0 0 25 0 25 -165 0
-165 0 2 -227z"/>
</g>
</svg>
